<svg width="90" height="90" viewBox="0 0 90 90" fill="none" xmlns="http://www.w3.org/2000/svg">
<circle cx="45" cy="45" r="45" fill="black"/>
<path d="M36.678 45C36.678 40.3978 40.41 36.666 45.015 36.666C49.62 36.666 53.354 40.3978 53.354 45C53.354 49.6022 49.62 53.334 45.015 53.334C40.41 53.334 36.678 49.6022 36.678 45ZM32.1701 45C32.1701 52.09 37.9207 57.8372 45.015 57.8372C52.1093 57.8372 57.8599 52.09 57.8599 45C57.8599 37.91 52.1093 32.1628 45.015 32.1628C37.9207 32.1628 32.1701 37.91 32.1701 45ZM55.3666 31.6538C55.3664 32.2471 55.5422 32.8272 55.8718 33.3207C56.2015 33.8142 56.6701 34.1989 57.2186 34.4262C57.767 34.6535 58.3705 34.7131 58.9529 34.5976C59.5352 34.4821 60.0702 34.1966 60.4902 33.7772C60.9101 33.3578 61.1962 32.8233 61.3123 32.2414C61.4284 31.6596 61.3691 31.0563 61.1422 30.5081C60.9152 29.9598 60.5306 29.4911 60.0371 29.1613C59.5436 28.8314 58.9633 28.6552 58.3696 28.655H58.3684C57.5726 28.6554 56.8095 28.9714 56.2466 29.5337C55.6838 30.0959 55.3673 30.8585 55.3666 31.6538V31.6538ZM34.9089 65.3494C32.4701 65.2384 31.1445 64.8324 30.2636 64.4894C29.0957 64.035 28.2624 63.4938 27.3862 62.6194C26.5101 61.745 25.9678 60.913 25.5151 59.7458C25.1717 58.8658 24.7655 57.5406 24.6546 55.1032C24.5333 52.468 24.5091 51.6764 24.5091 45.0002C24.5091 38.324 24.5353 37.5346 24.6546 34.8972C24.7657 32.4598 25.1749 31.1372 25.5151 30.2546C25.9698 29.0874 26.5113 28.2546 27.3862 27.379C28.2612 26.5034 29.0937 25.9614 30.2636 25.509C31.1441 25.1658 32.4701 24.7598 34.9089 24.649C37.5457 24.5278 38.3378 24.5036 45.015 24.5036C51.6922 24.5036 52.4851 24.5298 55.1241 24.649C57.5629 24.76 58.8863 25.169 59.7694 25.509C60.9373 25.9614 61.7706 26.5046 62.6468 27.379C63.5229 28.2534 64.0632 29.0874 64.5179 30.2546C64.8613 31.1346 65.2675 32.4598 65.3784 34.8972C65.4997 37.5346 65.5239 38.324 65.5239 45.0002C65.5239 51.6764 65.4997 52.4658 65.3784 55.1032C65.2673 57.5406 64.8591 58.8654 64.5179 59.7458C64.0632 60.913 63.5217 61.7458 62.6468 62.6194C61.7719 63.493 60.9373 64.035 59.7694 64.4894C58.8889 64.8326 57.5629 65.2386 55.1241 65.3494C52.4873 65.4706 51.6952 65.4948 45.015 65.4948C38.3348 65.4948 37.5449 65.4706 34.9089 65.3494V65.3494ZM34.7018 20.1514C32.0388 20.2726 30.2191 20.6946 28.63 21.3126C26.9842 21.9508 25.591 22.807 24.1987 24.1962C22.8065 25.5854 21.952 26.98 21.3134 28.6248C20.695 30.214 20.2728 32.0316 20.1515 34.693C20.0282 37.3586 20 38.2108 20 45C20 51.7892 20.0282 52.6414 20.1515 55.307C20.2728 57.9686 20.695 59.786 21.3134 61.3752C21.952 63.019 22.8067 64.4152 24.1987 65.8038C25.5908 67.1924 26.9842 68.0474 28.63 68.6874C30.2221 69.3054 32.0388 69.7274 34.7018 69.8486C37.3704 69.9698 38.2217 70 45.015 70C51.8083 70 52.661 69.9718 55.3282 69.8486C57.9914 69.7274 59.8099 69.3054 61.4 68.6874C63.0448 68.0474 64.439 67.193 65.8313 65.8038C67.2235 64.4146 68.0762 63.019 68.7166 61.3752C69.335 59.786 69.7592 57.9684 69.8785 55.307C69.9998 52.6394 70.028 51.7892 70.028 45C70.028 38.2108 69.9998 37.3586 69.8785 34.693C69.7572 32.0314 69.335 30.213 68.7166 28.6248C68.0762 26.981 67.2213 25.5876 65.8313 24.1962C64.4412 22.8048 63.0448 21.9508 61.402 21.3126C59.8099 20.6946 57.9912 20.2706 55.3302 20.1514C52.663 20.0302 51.8103 20 45.017 20C38.2237 20 37.3704 20.0282 34.7018 20.1514Z" fill="white"/>
</svg>
